<svg xmlns="http://www.w3.org/2000/svg" viewBox="0 0 1572 640" width="1572" height="640">
<rect width="1572" height="640" fill="#22272C"></rect>
<g transform="translate(120 120) scale(4.166666666666667)">
<path d="M 48 14 A 34 34 0 0 1 82 48" fill="none" stroke="#5B99FF" stroke-width="9" stroke-linecap="round"></path>
<path d="M 82 48 A 34 34 0 0 1 48 82" fill="none" stroke="#FF7561" stroke-width="9" stroke-linecap="round"></path>
<path d="M 48 82 A 34 34 0 0 1 14 48" fill="none" stroke="#FFCB2E" stroke-width="9" stroke-linecap="round"></path>
<path d="M 14 48 A 34 34 0 0 1 48 14" fill="none" stroke="#4BC97E" stroke-width="9" stroke-linecap="round"></path>
<line x1="36" y1="36" x2="60" y2="60" stroke="#FFFFFF" stroke-width="9" stroke-linecap="round"></line>
<line x1="60" y1="36" x2="36" y2="60" stroke="#FFFFFF" stroke-width="9" stroke-linecap="round"></line></g>
<path transform="translate(586 422.25)" d="M55.35 0L24 0L24-220.50L55.35-220.50L55.35 0ZM166.20 4.50L166.20 4.50Q142.05 4.50 123.82-6.08Q105.60-16.65 95.47-35.63Q85.35-54.60 85.35-79.65L85.35-79.65Q85.35-106.20 95.32-125.70Q105.30-145.20 123.15-155.85Q141-166.50 164.70-166.50L164.70-166.50Q189.45-166.50 206.85-155.03Q224.25-143.55 232.88-122.40Q241.50-101.25 239.70-72.15L239.70-72.15L208.35-72.15L208.35-83.55Q208.05-111.75 197.63-125.25Q187.20-138.75 165.90-138.75L165.90-138.75Q142.35-138.75 130.50-123.90Q118.65-109.05 118.65-81L118.65-81Q118.65-54.30 130.50-39.67Q142.35-25.05 164.70-25.05L164.70-25.05Q179.40-25.05 190.13-31.72Q200.85-38.40 206.85-50.85L206.85-50.85L237.60-41.10Q228.15-19.35 208.95-7.42Q189.75 4.50 166.20 4.50ZM224.10-72.15L108.45-72.15L108.45-96.60L224.10-96.60L224.10-72.15ZM280.65 0L243.30 0L303.90-81.90L244.65-162L281.85-162L322.20-106.35L362.10-162L399.30-162L340.05-81.90L400.80 0L363.45 0L322.20-57.45L280.65 0ZM480.75 4.35L480.75 4.35Q451.20 4.35 432.60-8.70Q414.00-21.75 409.80-45.45L409.80-45.45L441.90-50.40Q444.90-37.80 455.77-30.52Q466.65-23.25 482.85-23.25L482.85-23.25Q497.55-23.25 505.87-29.25Q514.20-35.25 514.20-45.75L514.20-45.75Q514.20-51.90 511.27-55.73Q508.35-59.55 499.05-63Q489.75-66.45 470.70-71.55L470.70-71.55Q449.85-76.95 437.62-83.17Q425.40-89.40 420.22-97.72Q415.05-106.05 415.05-117.90L415.05-117.90Q415.05-132.60 422.85-143.55Q430.65-154.50 444.82-160.50Q459.00-166.50 478.05-166.50L478.05-166.50Q496.65-166.50 511.20-160.65Q525.75-154.80 534.75-144.07Q543.75-133.35 545.55-118.95L545.55-118.95L513.45-113.10Q511.80-124.80 502.50-131.55Q493.20-138.30 478.35-138.90L478.35-138.90Q464.10-139.50 455.25-134.17Q446.40-128.85 446.40-119.55L446.40-119.55Q446.40-114.15 449.77-110.40Q453.15-106.65 462.90-103.20Q472.65-99.75 491.70-94.95L491.70-94.95Q512.10-89.70 524.10-83.33Q536.10-76.95 541.27-68.17Q546.45-59.40 546.45-46.95L546.45-46.95Q546.45-22.95 528.97-9.30Q511.50 4.35 480.75 4.35ZM619.35 4.50L619.35 4.50Q601.35 4.50 589.20-2.17Q577.05-8.85 570.82-19.88Q564.60-30.90 564.60-44.10L564.60-44.10Q564.60-56.40 568.95-65.70Q573.30-75 581.85-81.52Q590.40-88.05 602.85-92.10L602.85-92.10Q613.65-95.25 627.30-97.65Q640.95-100.05 656.02-102.15Q671.10-104.25 685.95-106.35L685.95-106.35L674.55-100.05Q674.85-119.10 666.52-128.32Q658.20-137.55 637.95-137.55L637.95-137.55Q625.20-137.55 614.55-131.63Q603.90-125.70 599.70-112.05L599.70-112.05L570.45-121.05Q576.45-141.90 593.32-154.20Q610.20-166.50 638.25-166.50L638.25-166.50Q660.00-166.50 676.12-159.07Q692.25-151.65 699.75-135.60L699.75-135.60Q703.65-127.65 704.55-118.80Q705.45-109.95 705.45-99.75L705.45-99.75L705.45 0L677.70 0L677.70-37.05L683.10-32.25Q673.05-13.65 657.52-4.58Q642.00 4.50 619.35 4.50ZM624.90-21.15L624.90-21.15Q638.25-21.15 647.85-25.88Q657.45-30.60 663.30-37.95Q669.15-45.30 670.95-53.25L670.95-53.25Q673.50-60.45 673.87-69.45Q674.25-78.45 674.25-83.85L674.25-83.85L684.45-80.10Q669.60-77.85 657.45-76.05Q645.30-74.25 635.47-72.52Q625.65-70.80 618.00-68.40L618.00-68.40Q611.55-66.15 606.52-63Q601.50-59.85 598.57-55.35Q595.65-50.85 595.65-44.40L595.65-44.40Q595.65-38.10 598.80-32.77Q601.95-27.45 608.40-24.30Q614.85-21.15 624.90-21.15ZM800.40 4.35L800.40 4.35Q770.85 4.35 752.25-8.70Q733.65-21.75 729.45-45.45L729.45-45.45L761.55-50.40Q764.55-37.80 775.42-30.52Q786.30-23.25 802.50-23.25L802.50-23.25Q817.20-23.25 825.52-29.25Q833.85-35.25 833.85-45.75L833.85-45.75Q833.85-51.90 830.92-55.73Q828.00-59.55 818.70-63Q809.40-66.45 790.35-71.55L790.35-71.55Q769.50-76.95 757.27-83.17Q745.05-89.40 739.87-97.72Q734.70-106.05 734.70-117.90L734.70-117.90Q734.70-132.60 742.50-143.55Q750.30-154.50 764.47-160.50Q778.65-166.50 797.70-166.50L797.70-166.50Q816.30-166.50 830.85-160.65Q845.40-154.80 854.40-144.07Q863.40-133.35 865.20-118.95L865.20-118.95L833.10-113.10Q831.45-124.80 822.15-131.55Q812.85-138.30 798.00-138.90L798.00-138.90Q783.75-139.50 774.90-134.17Q766.05-128.85 766.05-119.55L766.05-119.55Q766.05-114.15 769.42-110.40Q772.80-106.65 782.55-103.20Q792.30-99.75 811.35-94.95L811.35-94.95Q831.75-89.70 843.75-83.33Q855.75-76.95 860.92-68.17Q866.10-59.40 866.10-46.95L866.10-46.95Q866.10-22.95 848.62-9.30Q831.15 4.35 800.40 4.35Z" fill="#EDEFF1"></path>
</svg>