<svg xmlns="http://www.w3.org/2000/svg" viewBox="0 0 1584 396" width="1584" height="396">
<rect width="1584" height="396" fill="#F7F7F6"></rect>
<g transform="translate(120 98) scale(2.0833333333333335)">
<path d="M 48 14 A 34 34 0 0 1 82 48" fill="none" stroke="#2E7CF6" stroke-width="9" stroke-linecap="round"></path>
<path d="M 82 48 A 34 34 0 0 1 48 82" fill="none" stroke="#E8503A" stroke-width="9" stroke-linecap="round"></path>
<path d="M 48 82 A 34 34 0 0 1 14 48" fill="none" stroke="#F5B301" stroke-width="9" stroke-linecap="round"></path>
<path d="M 14 48 A 34 34 0 0 1 48 14" fill="none" stroke="#2FA05A" stroke-width="9" stroke-linecap="round"></path>
<line x1="36" y1="36" x2="60" y2="60" stroke="#22272C" stroke-width="9" stroke-linecap="round"></line>
<line x1="60" y1="36" x2="36" y2="60" stroke="#22272C" stroke-width="9" stroke-linecap="round"></line></g>
<path transform="translate(358 213.125)" d="M27.68 0L12 0L12-110.25L27.68-110.25L27.68 0ZM83.10 2.25L83.10 2.25Q71.03 2.25 61.91-3.04Q52.80-8.32 47.74-17.81Q42.67-27.30 42.67-39.82L42.67-39.82Q42.67-53.10 47.66-62.85Q52.65-72.60 61.57-77.92Q70.50-83.25 82.35-83.25L82.35-83.25Q94.72-83.25 103.42-77.51Q112.13-71.77 116.44-61.20Q120.75-50.63 119.85-36.07L119.85-36.07L104.17-36.07L104.17-41.77Q104.02-55.88 98.81-62.63Q93.60-69.38 82.95-69.38L82.95-69.38Q71.17-69.38 65.25-61.95Q59.32-54.52 59.32-40.50L59.32-40.50Q59.32-27.15 65.25-19.84Q71.17-12.53 82.35-12.53L82.35-12.53Q89.70-12.53 95.06-15.86Q100.42-19.20 103.42-25.43L103.42-25.43L118.80-20.55Q114.07-9.67 104.47-3.71Q94.88 2.25 83.10 2.25ZM112.05-36.07L54.22-36.07L54.22-48.30L112.05-48.30L112.05-36.07ZM140.32 0L121.65 0L151.95-40.95L122.32-81L140.92-81L161.10-53.17L181.05-81L199.65-81L170.02-40.95L200.40 0L181.72 0L161.10-28.72L140.32 0ZM240.37 2.17L240.37 2.17Q225.60 2.17 216.30-4.35Q207.00-10.88 204.90-22.72L204.90-22.72L220.95-25.20Q222.45-18.90 227.89-15.26Q233.32-11.63 241.42-11.63L241.42-11.63Q248.77-11.63 252.94-14.63Q257.10-17.63 257.10-22.88L257.10-22.88Q257.10-25.95 255.64-27.86Q254.17-29.77 249.52-31.50Q244.87-33.23 235.35-35.77L235.35-35.77Q224.92-38.48 218.81-41.59Q212.70-44.70 210.11-48.86Q207.52-53.02 207.52-58.95L207.52-58.95Q207.52-66.30 211.42-71.77Q215.32-77.25 222.41-80.25Q229.50-83.25 239.02-83.25L239.02-83.25Q248.32-83.25 255.60-80.33Q262.88-77.40 267.38-72.04Q271.88-66.67 272.77-59.47L272.77-59.47L256.72-56.55Q255.90-62.40 251.25-65.77Q246.60-69.15 239.17-69.45L239.17-69.45Q232.05-69.75 227.62-67.09Q223.20-64.42 223.20-59.77L223.20-59.77Q223.20-57.07 224.89-55.20Q226.57-53.32 231.45-51.60Q236.32-49.88 245.85-47.48L245.85-47.48Q256.05-44.85 262.05-41.66Q268.05-38.48 270.64-34.09Q273.22-29.70 273.22-23.47L273.22-23.47Q273.22-11.47 264.49-4.65Q255.75 2.17 240.37 2.17ZM309.67 2.25L309.67 2.25Q300.67 2.25 294.60-1.09Q288.52-4.42 285.41-9.94Q282.30-15.45 282.30-22.05L282.30-22.05Q282.30-28.20 284.47-32.85Q286.65-37.50 290.92-40.76Q295.20-44.02 301.42-46.05L301.42-46.05Q306.82-47.63 313.65-48.82Q320.47-50.02 328.01-51.07Q335.55-52.13 342.97-53.17L342.97-53.17L337.27-50.02Q337.42-59.55 333.26-64.16Q329.10-68.77 318.97-68.77L318.97-68.77Q312.60-68.77 307.27-65.81Q301.95-62.85 299.85-56.02L299.85-56.02L285.22-60.52Q288.22-70.95 296.66-77.10Q305.10-83.25 319.12-83.25L319.12-83.25Q330.00-83.25 338.06-79.54Q346.12-75.83 349.87-67.80L349.87-67.80Q351.82-63.82 352.27-59.40Q352.72-54.98 352.72-49.88L352.72-49.88L352.72 0L338.85 0L338.85-18.52L341.55-16.13Q336.52-6.83 328.76-2.29Q321.00 2.25 309.67 2.25ZM312.45-10.57L312.45-10.57Q319.12-10.57 323.92-12.94Q328.72-15.30 331.65-18.97Q334.57-22.65 335.47-26.63L335.47-26.63Q336.75-30.22 336.94-34.73Q337.12-39.23 337.12-41.92L337.12-41.92L342.22-40.05Q334.80-38.92 328.72-38.02Q322.65-37.13 317.74-36.26Q312.82-35.40 309.00-34.20L309.00-34.20Q305.77-33.07 303.26-31.50Q300.75-29.92 299.29-27.68Q297.82-25.43 297.82-22.20L297.82-22.20Q297.82-19.05 299.40-16.39Q300.97-13.72 304.20-12.15Q307.42-10.57 312.45-10.57ZM400.20 2.17L400.20 2.17Q385.42 2.17 376.12-4.35Q366.82-10.88 364.72-22.72L364.72-22.72L380.77-25.20Q382.27-18.90 387.71-15.26Q393.15-11.63 401.25-11.63L401.25-11.63Q408.60-11.63 412.76-14.63Q416.92-17.63 416.92-22.88L416.92-22.88Q416.92-25.95 415.46-27.86Q414.00-29.77 409.35-31.50Q404.70-33.23 395.17-35.77L395.17-35.77Q384.75-38.48 378.64-41.59Q372.52-44.70 369.94-48.86Q367.35-53.02 367.35-58.95L367.35-58.95Q367.35-66.30 371.25-71.77Q375.15-77.25 382.24-80.25Q389.32-83.25 398.85-83.25L398.85-83.25Q408.15-83.25 415.42-80.33Q422.70-77.40 427.20-72.04Q431.70-66.67 432.60-59.47L432.60-59.47L416.55-56.55Q415.72-62.40 411.07-65.77Q406.42-69.15 399.00-69.45L399.00-69.45Q391.87-69.75 387.45-67.09Q383.02-64.42 383.02-59.77L383.02-59.77Q383.02-57.07 384.71-55.20Q386.40-53.32 391.27-51.60Q396.15-49.88 405.67-47.48L405.67-47.48Q415.87-44.85 421.87-41.66Q427.87-38.48 430.46-34.09Q433.05-29.70 433.05-23.47L433.05-23.47Q433.05-11.47 424.31-4.65Q415.57 2.17 400.20 2.17Z" fill="#22272C"></path>
<path transform="translate(373.16 289.125)" d="M5.40 0L0.84 0L10.67-30.24L16.99-30.24L26.82 0L22.26 0L13.21-27.59L14.34-27.59L5.40 0ZM21.74-6.83L5.94-6.83L5.94-10.94L21.74-10.94L21.74-6.83ZM35.41 0L31.02 0L31.02-30.24L35.41-30.24L35.41 0ZM54.91 0L50.53 0L50.53-30.87L54.91-30.87L54.91 0ZM71.27 0.63L71.27 0.63Q67.89 0.63 65.34-0.85Q62.79-2.33 61.37-4.99Q59.95-7.64 59.95-11.15L59.95-11.15Q59.95-14.87 61.35-17.60Q62.75-20.33 65.25-21.82Q67.75-23.31 71.06-23.31L71.06-23.31Q74.53-23.31 76.97-21.70Q79.40-20.10 80.61-17.14Q81.82-14.18 81.56-10.10L81.56-10.10L77.17-10.10L77.17-11.70Q77.13-15.65 75.67-17.54Q74.21-19.43 71.23-19.43L71.23-19.43Q67.94-19.43 66.28-17.35Q64.62-15.27 64.62-11.34L64.62-11.34Q64.62-7.60 66.28-5.55Q67.94-3.51 71.06-3.51L71.06-3.51Q73.12-3.51 74.62-4.44Q76.13-5.38 76.97-7.12L76.97-7.12L81.27-5.75Q79.95-2.71 77.26-1.04Q74.57 0.63 71.27 0.63ZM79.38-10.10L63.19-10.10L63.19-13.52L79.38-13.52L79.38-10.10ZM95.61 10.71L95.61 10.71Q93.79 10.71 92.07 10.14Q90.36 9.58 88.96 8.47Q87.55 7.37 86.63 5.75L86.63 5.75L90.68 3.70Q91.41 5.15 92.78 5.82Q94.14 6.49 95.66 6.49L95.66 6.49Q97.52 6.49 98.85 5.83Q100.17 5.17 100.85 3.84Q101.53 2.52 101.51 0.57L101.51 0.57L101.51-5.78L102.04-5.78L102.04-22.68L105.92-22.68L105.92 0.61Q105.92 1.51 105.86 2.33Q105.80 3.15 105.63 3.97L105.63 3.97Q105.15 6.26 103.79 7.75Q102.44 9.24 100.35 9.98Q98.26 10.71 95.61 10.71ZM95.28 0.63L95.28 0.63Q92.11 0.63 89.81-0.95Q87.51-2.52 86.26-5.24Q85.01-7.96 85.01-11.36L85.01-11.36Q85.01-14.78 86.27-17.48Q87.53-20.18 89.85-21.75Q92.17-23.31 95.36-23.31L95.36-23.31Q98.57-23.31 100.77-21.75Q102.96-20.18 104.09-17.47Q105.21-14.76 105.21-11.36L105.21-11.36Q105.21-7.96 104.08-5.25Q102.94-2.54 100.74-0.96Q98.53 0.63 95.28 0.63ZM95.89-3.34L95.89-3.34Q98.05-3.34 99.41-4.37Q100.78-5.40 101.41-7.20Q102.04-9.01 102.04-11.36L102.04-11.36Q102.04-13.71 101.40-15.52Q100.76-17.33 99.42-18.33Q98.09-19.34 96.03-19.34L96.03-19.34Q93.85-19.34 92.44-18.27Q91.03-17.20 90.35-15.39Q89.67-13.59 89.67-11.36L89.67-11.36Q89.67-9.11 90.35-7.30Q91.03-5.48 92.41-4.41Q93.79-3.34 95.89-3.34ZM118.21 0.63L118.21 0.63Q115.69 0.63 113.99-0.30Q112.29-1.24 111.42-2.78Q110.54-4.33 110.54-6.17L110.54-6.17Q110.54-7.90 111.15-9.20Q111.76-10.50 112.96-11.41Q114.16-12.33 115.90-12.89L115.90-12.89Q117.41-13.34 119.32-13.67Q121.23-14.01 123.34-14.30Q125.45-14.60 127.53-14.89L127.53-14.89L125.94-14.01Q125.98-16.67 124.81-17.97Q123.65-19.26 120.81-19.26L120.81-19.26Q119.03-19.26 117.54-18.43Q116.05-17.60 115.46-15.69L115.46-15.69L111.36-16.95Q112.20-19.87 114.57-21.59Q116.93-23.31 120.86-23.31L120.86-23.31Q123.90-23.31 126.16-22.27Q128.42-21.23 129.47-18.98L129.47-18.98Q130.01-17.87 130.14-16.63Q130.26-15.39 130.26-13.97L130.26-13.97L130.26 0L126.38 0L126.38-5.19L127.13-4.52Q125.73-1.91 123.55-0.64Q121.38 0.63 118.21 0.63ZM118.99-2.96L118.99-2.96Q120.86-2.96 122.20-3.62Q123.54-4.28 124.36-5.31Q125.18-6.34 125.43-7.46L125.43-7.46Q125.79-8.46 125.84-9.72Q125.90-10.98 125.90-11.74L125.90-11.74L127.32-11.21Q125.24-10.90 123.54-10.65Q121.84-10.40 120.47-10.15Q119.09-9.91 118.02-9.58L118.02-9.58Q117.12-9.26 116.41-8.82Q115.71-8.38 115.30-7.75Q114.89-7.12 114.89-6.22L114.89-6.22Q114.89-5.33 115.33-4.59Q115.77-3.84 116.68-3.40Q117.58-2.96 118.99-2.96ZM140.53 0L136.14 0L136.14-30.87L140.53-30.87L140.53 0ZM168.21-3.72L168.21 0Q166.07 0.42 164.01 0.36Q161.95 0.29 160.34-0.44Q158.72-1.18 157.90-2.75L157.90-2.75Q157.16-4.16 157.11-5.62Q157.06-7.08 157.06-8.93L157.06-8.93L157.06-28.98L161.47-28.98L161.47-9.13Q161.47-7.77 161.50-6.76Q161.53-5.75 161.93-5.06L161.93-5.06Q162.69-3.76 164.34-3.58Q165.98-3.40 168.21-3.72L168.21-3.72ZM168.21-19.15L152.71-19.15L152.71-22.68L168.21-22.68L168.21-19.15ZM181.99 0.63L181.99 0.63Q178.61 0.63 176.05-0.85Q173.50-2.33 172.08-4.99Q170.67-7.64 170.67-11.15L170.67-11.15Q170.67-14.87 172.06-17.60Q173.46-20.33 175.96-21.82Q178.46-23.31 181.78-23.31L181.78-23.31Q185.24-23.31 187.68-21.70Q190.11-20.10 191.32-17.14Q192.53-14.18 192.28-10.10L192.28-10.10L187.89-10.10L187.89-11.70Q187.85-15.65 186.39-17.54Q184.93-19.43 181.94-19.43L181.94-19.43Q178.65-19.43 176.99-17.35Q175.33-15.27 175.33-11.34L175.33-11.34Q175.33-7.60 176.99-5.55Q178.65-3.51 181.78-3.51L181.78-3.51Q183.83-3.51 185.34-4.44Q186.84-5.38 187.68-7.12L187.68-7.12L191.98-5.75Q190.66-2.71 187.97-1.04Q185.28 0.63 181.99 0.63ZM190.09-10.10L173.90-10.10L173.90-13.52L190.09-13.52L190.09-10.10ZM206.68 0.63L206.68 0.63Q203.20 0.63 200.76-0.92Q198.32-2.48 197.03-5.19Q195.74-7.90 195.72-11.34L195.72-11.34Q195.74-14.85 197.06-17.55Q198.39-20.24 200.84-21.78Q203.30-23.31 206.75-23.31L206.75-23.31Q210.46-23.31 213.10-21.46Q215.73-19.61 216.57-16.40L216.57-16.40L212.21-15.14Q211.55-17.05 210.07-18.11Q208.59-19.17 206.68-19.17L206.68-19.17Q204.52-19.17 203.13-18.15Q201.75-17.14 201.08-15.37Q200.40-13.61 200.38-11.34L200.38-11.34Q200.40-7.83 201.99-5.67Q203.57-3.51 206.68-3.51L206.68-3.51Q208.80-3.51 210.12-4.48Q211.43-5.46 212.12-7.29L212.12-7.29L216.57-6.24Q215.46-2.92 212.90-1.14Q210.34 0.63 206.68 0.63ZM241.23 0L236.78 0L236.78-11.15Q236.78-12.47 236.55-13.87Q236.33-15.27 235.71-16.46Q235.10-17.66 233.97-18.40Q232.85-19.13 231.04-19.13L231.04-19.13Q229.87-19.13 228.82-18.74Q227.77-18.35 226.98-17.49Q226.19-16.63 225.74-15.23Q225.29-13.82 225.29-11.80L225.29-11.80L222.56-12.83Q222.56-15.92 223.71-18.28Q224.87-20.64 227.03-21.97Q229.19-23.29 232.26-23.29L232.26-23.29Q234.61-23.29 236.21-22.53Q237.80-21.78 238.80-20.55Q239.80-19.32 240.32-17.87Q240.85-16.42 241.04-15.04Q241.23-13.65 241.23-12.60L241.23-12.60L241.23 0ZM225.29 0L220.84 0L220.84-30.24L224.76-30.24L224.76-13.92L225.29-13.92L225.29 0ZM257.54-10.44L257.54-10.44Q256.33-10.44 255.50-11.24Q254.67-12.03 254.67-13.23L254.67-13.23Q254.67-14.45 255.50-15.24Q256.33-16.02 257.54-16.02L257.54-16.02Q258.64-16.02 259.46-15.24Q260.27-14.45 260.27-13.23L260.27-13.23Q260.27-12.03 259.46-11.24Q258.64-10.44 257.54-10.44ZM282.49 0L278.96 0L272.03-22.70L276.38-22.68L281.13-7.12L285.92-22.68L289.69-22.68L294.48-7.12L299.23-22.68L303.56-22.68L296.63 0L293.10 0L287.81-16.42L282.49 0ZM316.34 0.63L316.34 0.63Q312.94 0.63 310.44-0.90Q307.94-2.44 306.59-5.13Q305.24-7.83 305.24-11.36L305.24-11.36Q305.24-14.91 306.62-17.61Q308.01-20.31 310.51-21.81Q313.01-23.31 316.34-23.31L316.34-23.31Q319.75-23.31 322.25-21.78Q324.74-20.24 326.11-17.56Q327.47-14.87 327.47-11.36L327.47-11.36Q327.47-7.81 326.10-5.11Q324.72-2.42 322.22-0.89Q319.73 0.63 316.34 0.63ZM316.34-3.51L316.34-3.51Q319.60-3.51 321.21-5.70Q322.81-7.90 322.81-11.36L322.81-11.36Q322.81-14.91 321.18-17.04Q319.56-19.17 316.34-19.17L316.34-19.17Q314.14-19.17 312.71-18.18Q311.28-17.18 310.59-15.42Q309.90-13.67 309.90-11.36L309.90-11.36Q309.90-7.79 311.54-5.65Q313.17-3.51 316.34-3.51ZM336.53 0L332.09 0L332.09-22.68L336.00-22.68L336.00-17.18L335.45-17.89Q335.87-18.98 336.55-19.90Q337.22-20.81 338.10-21.40L338.10-21.40Q338.96-22.03 340.02-22.38Q341.08-22.72 342.20-22.80Q343.31-22.87 344.34-22.68L344.34-22.68L344.34-18.56Q343.22-18.86 341.87-18.73Q340.52-18.61 339.38-17.87L339.38-17.87Q338.31-17.18 337.69-16.19Q337.07-15.20 336.80-14.00Q336.53-12.79 336.53-11.45L336.53-11.45L336.53 0ZM352.78 0L348.31 0L348.33-30.24L352.78-30.24L352.78-11.76L361.68-22.68L367.27-22.68L357.86-11.34L368.24 0L362.27 0L352.78-10.92L352.78 0ZM376.80 0L372.41 0L372.41-23.48Q372.41-24.34 372.48-25.32Q372.54-26.29 372.84-27.25Q373.15-28.20 373.86-29.00L373.86-29.00Q374.72-29.95 375.75-30.35Q376.78-30.74 377.80-30.81Q378.82-30.87 379.68-30.87L379.68-30.87L382.54-30.87L382.54-27.26L379.89-27.26Q378.34-27.26 377.57-26.49Q376.80-25.73 376.80-24.32L376.80-24.32L376.80 0ZM382.54-19.15L368.66-19.15L368.66-22.68L382.54-22.68L382.54-19.15ZM391.34 0L386.95 0L386.95-30.87L391.34-30.87L391.34 0ZM407.48 0.63L407.48 0.63Q404.08 0.63 401.58-0.90Q399.08-2.44 397.73-5.13Q396.38-7.83 396.38-11.36L396.38-11.36Q396.38-14.91 397.76-17.61Q399.15-20.31 401.65-21.81Q404.14-23.31 407.48-23.31L407.48-23.31Q410.89-23.31 413.38-21.78Q415.88-20.24 417.25-17.56Q418.61-14.87 418.61-11.36L418.61-11.36Q418.61-7.81 417.24-5.11Q415.86-2.42 413.36-0.89Q410.87 0.63 407.48 0.63ZM407.48-3.51L407.48-3.51Q410.74-3.51 412.35-5.70Q413.95-7.90 413.95-11.36L413.95-11.36Q413.95-14.91 412.32-17.04Q410.70-19.17 407.48-19.17L407.48-19.17Q405.28-19.17 403.85-18.18Q402.42-17.18 401.73-15.42Q401.04-13.67 401.04-11.36L401.04-11.36Q401.04-7.79 402.68-5.65Q404.31-3.51 407.48-3.51ZM430.75 0L427.22 0L420.29-22.70L424.64-22.68L429.39-7.12L434.18-22.68L437.95-22.68L442.74-7.12L447.49-22.68L451.81-22.68L444.88 0L441.36 0L436.06-16.42L430.75 0ZM470.40 0.63L470.40 0.63Q467.88 0.63 466.18-0.30Q464.48-1.24 463.61-2.78Q462.74-4.33 462.74-6.17L462.74-6.17Q462.74-7.90 463.34-9.20Q463.95-10.50 465.15-11.41Q466.35-12.33 468.09-12.89L468.09-12.89Q469.60-13.34 471.51-13.67Q473.42-14.01 475.53-14.30Q477.64-14.60 479.72-14.89L479.72-14.89L478.13-14.01Q478.17-16.67 477.00-17.97Q475.84-19.26 473.00-19.26L473.00-19.26Q471.22-19.26 469.73-18.43Q468.24-17.60 467.65-15.69L467.65-15.69L463.55-16.95Q464.39-19.87 466.76-21.59Q469.12-23.31 473.05-23.31L473.05-23.31Q476.09-23.31 478.35-22.27Q480.61-21.23 481.66-18.98L481.66-18.98Q482.20-17.87 482.33-16.63Q482.45-15.39 482.45-13.97L482.45-13.97L482.45 0L478.57 0L478.57-5.19L479.32-4.52Q477.92-1.91 475.74-0.64Q473.57 0.63 470.40 0.63ZM471.18-2.96L471.18-2.96Q473.05-2.96 474.39-3.62Q475.73-4.28 476.55-5.31Q477.37-6.34 477.62-7.46L477.62-7.46Q477.98-8.46 478.03-9.72Q478.09-10.98 478.09-11.74L478.09-11.74L479.51-11.21Q477.44-10.90 475.73-10.65Q474.03-10.40 472.66-10.15Q471.28-9.91 470.21-9.58L470.21-9.58Q469.31-9.26 468.60-8.82Q467.90-8.38 467.49-7.75Q467.08-7.12 467.08-6.22L467.08-6.22Q467.08-5.33 467.52-4.59Q467.96-3.84 468.87-3.40Q469.77-2.96 471.18-2.96ZM496.46 0.61L496.46 0.61Q494.11 0.61 492.51-0.15Q490.92-0.90 489.92-2.13Q488.92-3.36 488.40-4.81Q487.87-6.26 487.68-7.64Q487.49-9.03 487.49-10.08L487.49-10.08L487.49-22.68L491.95-22.68L491.95-11.53Q491.95-10.21 492.17-8.81Q492.39-7.41 493.01-6.22Q493.63-5.02 494.75-4.28Q495.87-3.55 497.68-3.55L497.68-3.55Q498.86-3.55 499.90-3.94Q500.95-4.33 501.74-5.19Q502.53-6.05 502.98-7.46Q503.43-8.86 503.43-10.88L503.43-10.88L506.16-9.85Q506.16-6.76 505.01-4.40Q503.85-2.04 501.69-0.71Q499.53 0.61 496.46 0.61ZM507.86 0L503.96 0L503.96-6.55L503.43-6.55L503.43-22.68L507.86-22.68L507.86 0ZM526.72-3.72L526.72 0Q524.58 0.42 522.52 0.36Q520.46 0.29 518.85-0.44Q517.23-1.18 516.41-2.75L516.41-2.75Q515.68-4.16 515.62-5.62Q515.57-7.08 515.57-8.93L515.57-8.93L515.57-28.98L519.98-28.98L519.98-9.13Q519.98-7.77 520.01-6.76Q520.04-5.75 520.44-5.06L520.44-5.06Q521.20-3.76 522.85-3.58Q524.50-3.40 526.72-3.72L526.72-3.72ZM526.72-19.15L511.22-19.15L511.22-22.68L526.72-22.68L526.72-19.15ZM540.29 0.63L540.29 0.63Q536.89 0.63 534.39-0.90Q531.89-2.44 530.53-5.13Q529.18-7.83 529.18-11.36L529.18-11.36Q529.18-14.91 530.57-17.61Q531.95-20.31 534.45-21.81Q536.95-23.31 540.29-23.31L540.29-23.31Q543.69-23.31 546.19-21.78Q548.69-20.24 550.05-17.56Q551.42-14.87 551.42-11.36L551.42-11.36Q551.42-7.81 550.04-5.11Q548.67-2.42 546.17-0.89Q543.67 0.63 540.29 0.63ZM540.29-3.51L540.29-3.51Q543.54-3.51 545.15-5.70Q546.76-7.90 546.76-11.36L546.76-11.36Q546.76-14.91 545.13-17.04Q543.50-19.17 540.29-19.17L540.29-19.17Q538.08-19.17 536.65-18.18Q535.23-17.18 534.53-15.42Q533.84-13.67 533.84-11.36L533.84-11.36Q533.84-7.79 535.48-5.65Q537.12-3.51 540.29-3.51ZM587.60 0L583.21 0L583.23-14.13Q583.23-16.59 581.97-17.97Q580.71-19.34 578.66-19.34L578.66-19.34Q577.40-19.34 576.36-18.76Q575.32-18.19 574.68-17.04Q574.04-15.90 574.04-14.18L574.04-14.18L571.91-15.25Q571.87-17.64 572.93-19.45Q573.99-21.25 575.82-22.25Q577.65-23.25 579.92-23.25L579.92-23.25Q583.59-23.25 585.61-21.04Q587.62-18.84 587.62-15.18L587.62-15.18L587.60 0ZM560.43 0L556.02 0L556.02-22.68L559.92-22.68L559.92-16.13L560.43-16.13L560.43 0ZM574.01 0L569.63 0L569.65-14.05Q569.65-16.53 568.40-17.93Q567.15-19.34 565.05-19.34L565.05-19.34Q562.97-19.34 561.70-17.91Q560.43-16.48 560.43-14.18L560.43-14.18L558.33-15.52Q558.33-17.75 559.40-19.49Q560.47-21.23 562.30-22.24Q564.12-23.25 566.43-23.25L566.43-23.25Q568.85-23.25 570.55-22.23Q572.25-21.21 573.14-19.38Q574.04-17.56 574.04-15.14L574.04-15.14L574.01 0ZM599.49 0.63L599.49 0.63Q596.97 0.63 595.27-0.30Q593.57-1.24 592.69-2.78Q591.82-4.33 591.82-6.17L591.82-6.17Q591.82-7.90 592.43-9.20Q593.04-10.50 594.24-11.41Q595.43-12.33 597.18-12.89L597.18-12.89Q598.69-13.34 600.60-13.67Q602.51-14.01 604.62-14.30Q606.73-14.60 608.81-14.89L608.81-14.89L607.22-14.01Q607.26-16.67 606.09-17.97Q604.93-19.26 602.09-19.26L602.09-19.26Q600.31-19.26 598.82-18.43Q597.32-17.60 596.74-15.69L596.74-15.69L592.64-16.95Q593.48-19.87 595.84-21.59Q598.21-23.31 602.13-23.31L602.13-23.31Q605.18-23.31 607.44-22.27Q609.69-21.23 610.74-18.98L610.74-18.98Q611.29-17.87 611.42-16.63Q611.54-15.39 611.54-13.97L611.54-13.97L611.54 0L607.66 0L607.66-5.19L608.41-4.52Q607.01-1.91 604.83-0.64Q602.66 0.63 599.49 0.63ZM600.26-2.96L600.26-2.96Q602.13-2.96 603.48-3.62Q604.82-4.28 605.64-5.31Q606.46-6.34 606.71-7.46L606.71-7.46Q607.07-8.46 607.12-9.72Q607.17-10.98 607.17-11.74L607.17-11.74L608.60-11.21Q606.52-10.90 604.82-10.65Q603.12-10.40 601.74-10.15Q600.37-9.91 599.30-9.58L599.30-9.58Q598.40-9.26 597.69-8.82Q596.99-8.38 596.58-7.75Q596.17-7.12 596.17-6.22L596.17-6.22Q596.17-5.33 596.61-4.59Q597.05-3.84 597.95-3.40Q598.86-2.96 600.26-2.96ZM629.98-3.72L629.98 0Q627.84 0.42 625.78 0.36Q623.72 0.29 622.10-0.44Q620.49-1.18 619.67-2.75L619.67-2.75Q618.93-4.16 618.88-5.62Q618.83-7.08 618.83-8.93L618.83-8.93L618.83-28.98L623.24-28.98L623.24-9.13Q623.24-7.77 623.27-6.76Q623.30-5.75 623.70-5.06L623.70-5.06Q624.46-3.76 626.10-3.58Q627.75-3.40 629.98-3.72L629.98-3.72ZM629.98-19.15L614.48-19.15L614.48-22.68L629.98-22.68L629.98-19.15ZM639.56-26.40L635.17-26.40L635.17-30.66L639.56-30.66L639.56-26.40ZM639.56 0L635.17 0L635.17-22.68L639.56-22.68L639.56 0ZM655.70 0.63L655.70 0.63Q652.30 0.63 649.80-0.90Q647.30-2.44 645.95-5.13Q644.60-7.83 644.60-11.36L644.60-11.36Q644.60-14.91 645.98-17.61Q647.37-20.31 649.87-21.81Q652.37-23.31 655.70-23.31L655.70-23.31Q659.11-23.31 661.61-21.78Q664.10-20.24 665.47-17.56Q666.83-14.87 666.83-11.36L666.83-11.36Q666.83-7.81 665.46-5.11Q664.08-2.42 661.58-0.89Q659.09 0.63 655.70 0.63ZM655.70-3.51L655.70-3.51Q658.96-3.51 660.57-5.70Q662.17-7.90 662.17-11.36L662.17-11.36Q662.17-14.91 660.54-17.04Q658.92-19.17 655.70-19.17L655.70-19.17Q653.50-19.17 652.07-18.18Q650.64-17.18 649.95-15.42Q649.26-13.67 649.26-11.36L649.26-11.36Q649.26-7.79 650.90-5.65Q652.53-3.51 655.70-3.51ZM691.82 0L687.37 0L687.37-11.15Q687.37-12.47 687.15-13.87Q686.93-15.27 686.31-16.46Q685.69-17.66 684.57-18.40Q683.45-19.13 681.64-19.13L681.64-19.13Q680.46-19.13 679.41-18.74Q678.36-18.35 677.58-17.49Q676.79-16.63 676.34-15.23Q675.89-13.82 675.89-11.80L675.89-11.80L673.16-12.83Q673.16-15.92 674.31-18.28Q675.47-20.64 677.63-21.97Q679.79-23.29 682.86-23.29L682.86-23.29Q685.21-23.29 686.81-22.53Q688.40-21.78 689.40-20.55Q690.40-19.32 690.92-17.87Q691.45-16.42 691.64-15.04Q691.82-13.65 691.82-12.60L691.82-12.60L691.82 0ZM675.89 0L671.43 0L671.43-22.68L675.36-22.68L675.36-16.13L675.89-16.13L675.89 0ZM715.62 0.63L715.62 0.63Q713.08 0.63 710.87-0.12Q708.67-0.86 707.18-2.46L707.18-2.46Q706.02-3.74 705.46-5.28Q704.91-6.83 704.84-8.57L704.84-8.57Q704.84-10.27 705.34-11.88Q705.83-13.48 706.90-14.74L706.90-14.74Q707.39-15.33 707.97-15.76Q708.56-16.19 709.15-16.53L709.15-16.53Q707.81-18.00 707.11-19.33Q706.42-20.66 706.42-22.49L706.42-22.49Q706.42-25.05 707.76-27.10Q709.11-29.15 711.44-30.05L711.44-30.05Q712.51-30.49 713.62-30.65Q714.74-30.81 715.79-30.81L715.79-30.81Q717.68-30.81 719.44-30.26Q721.20-29.72 722.46-28.48L722.46-28.48Q723.26-27.74 723.82-26.82Q724.37-25.89 724.67-24.93L724.67-24.93L720.34-23.92Q719.99-24.93 719.17-25.62L719.17-25.62Q718.47-26.23 717.56-26.45Q716.65-26.67 715.74-26.67L715.74-26.67Q714.25-26.67 713.06-26.10L713.06-26.10Q711.96-25.58 711.42-24.66Q710.87-23.75 710.87-22.47L710.87-22.47Q710.87-21.34 711.27-20.64Q711.67-19.95 712.34-19.19L712.34-19.19Q712.74-18.75 713.30-18.25Q713.85-17.75 714.44-17.20L714.44-17.20L722.67-9.53Q722.72-10.00 722.74-10.52Q722.76-11.05 722.76-11.53L722.76-11.53L722.74-15.46L726.66-15.46L726.66-10.27Q726.66-8.95 726.59-7.89Q726.52-6.83 726.33-6.15L726.33-6.15L730.11-2.65L727.27 0.40L724.23-2.50Q723.26-1.53 722.06-0.87Q720.87-0.21 719.65 0.11L719.65 0.11Q718.62 0.42 717.62 0.53Q716.63 0.63 715.62 0.63ZM715.74-3.57L715.74-3.57Q716.58-3.57 717.30-3.66Q718.01-3.76 718.66-4.03L718.66-4.03Q719.54-4.39 720.10-4.77Q720.66-5.15 721.04-5.50L721.04-5.50L712.43-13.40Q711.77-13.17 711.22-12.80Q710.66-12.43 710.26-11.95L710.26-11.95Q709.78-11.34 709.54-10.53Q709.30-9.72 709.32-8.80L709.32-8.80Q709.32-7.79 709.64-6.96Q709.97-6.13 710.49-5.48L710.49-5.48Q711.33-4.47 712.83-4.02Q714.34-3.57 715.74-3.57ZM751.61 0.63L751.61 0.63Q748.13 0.63 745.69-0.92Q743.25-2.48 741.96-5.19Q740.67-7.90 740.65-11.34L740.65-11.34Q740.67-14.85 741.99-17.55Q743.32-20.24 745.77-21.78Q748.23-23.31 751.67-23.31L751.67-23.31Q755.39-23.31 758.03-21.46Q760.66-19.61 761.50-16.40L761.50-16.40L757.13-15.14Q756.48-17.05 755.00-18.11Q753.52-19.17 751.61-19.17L751.61-19.17Q749.45-19.17 748.06-18.15Q746.68-17.14 746.00-15.37Q745.33-13.61 745.31-11.34L745.31-11.34Q745.33-7.83 746.92-5.67Q748.50-3.51 751.61-3.51L751.61-3.51Q753.73-3.51 755.04-4.48Q756.36-5.46 757.05-7.29L757.05-7.29L761.50-6.24Q760.39-2.92 757.83-1.14Q755.27 0.63 751.61 0.63ZM775.01 0.63L775.01 0.63Q771.60 0.63 769.10-0.90Q766.61-2.44 765.25-5.13Q763.90-7.83 763.90-11.36L763.90-11.36Q763.90-14.91 765.28-17.61Q766.67-20.31 769.17-21.81Q771.67-23.31 775.01-23.31L775.01-23.31Q778.41-23.31 780.91-21.78Q783.41-20.24 784.77-17.56Q786.14-14.87 786.14-11.36L786.14-11.36Q786.14-7.81 784.76-5.11Q783.38-2.42 780.89-0.89Q778.39 0.63 775.01 0.63ZM775.01-3.51L775.01-3.51Q778.26-3.51 779.87-5.70Q781.47-7.90 781.47-11.36L781.47-11.36Q781.47-14.91 779.85-17.04Q778.22-19.17 775.01-19.17L775.01-19.17Q772.80-19.17 771.37-18.18Q769.94-17.18 769.25-15.42Q768.56-13.67 768.56-11.36L768.56-11.36Q768.56-7.79 770.20-5.65Q771.83-3.51 775.01-3.51ZM811.13 0L806.67 0L806.67-11.15Q806.67-12.47 806.45-13.87Q806.23-15.27 805.61-16.46Q804.99-17.66 803.87-18.40Q802.75-19.13 800.94-19.13L800.94-19.13Q799.76-19.13 798.71-18.74Q797.66-18.35 796.88-17.49Q796.09-16.63 795.64-15.23Q795.19-13.82 795.19-11.80L795.19-11.80L792.46-12.83Q792.46-15.92 793.61-18.28Q794.77-20.64 796.93-21.97Q799.09-23.29 802.16-23.29L802.16-23.29Q804.51-23.29 806.11-22.53Q807.70-21.78 808.70-20.55Q809.70-19.32 810.22-17.87Q810.75-16.42 810.94-15.04Q811.13-13.65 811.13-12.60L811.13-12.60L811.13 0ZM795.19 0L790.73 0L790.73-22.68L794.66-22.68L794.66-16.13L795.19-16.13L795.19 0ZM825.26 0.61L825.26 0.61Q821.12 0.61 818.52-1.22Q815.91-3.05 815.33-6.36L815.33-6.36L819.82-7.06Q820.24-5.29 821.76-4.27Q823.28-3.26 825.55-3.26L825.55-3.26Q827.61-3.26 828.78-4.10Q829.94-4.94 829.94-6.41L829.94-6.41Q829.94-7.27 829.53-7.80Q829.12-8.34 827.82-8.82Q826.52-9.30 823.85-10.02L823.85-10.02Q820.93-10.77 819.22-11.64Q817.51-12.52 816.78-13.68Q816.06-14.85 816.06-16.51L816.06-16.51Q816.06-18.56 817.15-20.10Q818.24-21.63 820.23-22.47Q822.21-23.31 824.88-23.31L824.88-23.31Q827.48-23.31 829.52-22.49Q831.56-21.67 832.82-20.17Q834.08-18.67 834.33-16.65L834.33-16.65L829.84-15.83Q829.61-17.47 828.30-18.42Q827.00-19.36 824.92-19.45L824.92-19.45Q822.93-19.53 821.69-18.78Q820.45-18.04 820.45-16.74L820.45-16.74Q820.45-15.98 820.92-15.46Q821.39-14.93 822.76-14.45Q824.12-13.97 826.79-13.29L826.79-13.29Q829.65-12.56 831.33-11.67Q833.01-10.77 833.73-9.54Q834.46-8.32 834.46-6.57L834.46-6.57Q834.46-3.21 832.01-1.30Q829.56 0.61 825.26 0.61ZM847.64 0.61L847.64 0.61Q845.29 0.61 843.70-0.15Q842.10-0.90 841.10-2.13Q840.11-3.36 839.58-4.81Q839.06-6.26 838.87-7.64Q838.68-9.03 838.68-10.08L838.68-10.08L838.68-22.68L843.13-22.68L843.13-11.53Q843.13-10.21 843.35-8.81Q843.57-7.41 844.19-6.22Q844.81-5.02 845.93-4.28Q847.06-3.55 848.86-3.55L848.86-3.55Q850.04-3.55 851.09-3.94Q852.14-4.33 852.93-5.19Q853.71-6.05 854.16-7.46Q854.62-8.86 854.62-10.88L854.62-10.88L857.35-9.85Q857.35-6.76 856.19-4.40Q855.04-2.04 852.87-0.71Q850.71 0.61 847.64 0.61ZM859.05 0L855.14 0L855.14-6.55L854.62-6.55L854.62-22.68L859.05-22.68L859.05 0ZM869.74 0L865.35 0L865.35-30.87L869.74-30.87L869.74 0ZM889.01-3.72L889.01 0Q886.87 0.42 884.81 0.36Q882.76 0.29 881.14-0.44Q879.52-1.18 878.70-2.75L878.70-2.75Q877.97-4.16 877.92-5.62Q877.86-7.08 877.86-8.93L877.86-8.93L877.86-28.98L882.27-28.98L882.27-9.13Q882.27-7.77 882.30-6.76Q882.34-5.75 882.74-5.06L882.74-5.06Q883.49-3.76 885.14-3.58Q886.79-3.40 889.01-3.72L889.01-3.72ZM889.01-19.15L873.52-19.15L873.52-22.68L889.01-22.68L889.01-19.15ZM900.19 0.63L900.19 0.63Q897.67 0.63 895.97-0.30Q894.26-1.24 893.39-2.78Q892.52-4.33 892.52-6.17L892.52-6.17Q892.52-7.90 893.13-9.20Q893.74-10.50 894.94-11.41Q896.13-12.33 897.88-12.89L897.88-12.89Q899.39-13.34 901.30-13.67Q903.21-14.01 905.32-14.30Q907.43-14.60 909.51-14.89L909.51-14.89L907.91-14.01Q907.96-16.67 906.79-17.97Q905.63-19.26 902.79-19.26L902.79-19.26Q901.01-19.26 899.51-18.43Q898.02-17.60 897.44-15.69L897.44-15.69L893.34-16.95Q894.18-19.87 896.54-21.59Q898.91-23.31 902.83-23.31L902.83-23.31Q905.88-23.31 908.13-22.27Q910.39-21.23 911.44-18.98L911.44-18.98Q911.99-17.87 912.11-16.63Q912.24-15.39 912.24-13.97L912.24-13.97L912.24 0L908.36 0L908.36-5.19L909.11-4.52Q907.70-1.91 905.53-0.64Q903.36 0.63 900.19 0.63ZM900.96-2.96L900.96-2.96Q902.83-2.96 904.18-3.62Q905.52-4.28 906.34-5.31Q907.16-6.34 907.41-7.46L907.41-7.46Q907.77-8.46 907.82-9.72Q907.87-10.98 907.87-11.74L907.87-11.74L909.30-11.21Q907.22-10.90 905.52-10.65Q903.82-10.40 902.44-10.15Q901.07-9.91 900.00-9.58L900.00-9.58Q899.09-9.26 898.39-8.82Q897.69-8.38 897.28-7.75Q896.87-7.12 896.87-6.22L896.87-6.22Q896.87-5.33 897.31-4.59Q897.75-3.84 898.65-3.40Q899.56-2.96 900.96-2.96ZM938.07 0L933.62 0L933.62-11.15Q933.62-12.47 933.40-13.87Q933.18-15.27 932.56-16.46Q931.94-17.66 930.81-18.40Q929.69-19.13 927.89-19.13L927.89-19.13Q926.71-19.13 925.66-18.74Q924.61-18.35 923.82-17.49Q923.03-16.63 922.58-15.23Q922.13-13.82 922.13-11.80L922.13-11.80L919.40-12.83Q919.40-15.92 920.56-18.28Q921.71-20.64 923.87-21.97Q926.04-23.29 929.10-23.29L929.10-23.29Q931.46-23.29 933.05-22.53Q934.65-21.78 935.64-20.55Q936.64-19.32 937.17-17.87Q937.69-16.42 937.88-15.04Q938.07-13.65 938.07-12.60L938.07-12.60L938.07 0ZM922.13 0L917.68 0L917.68-22.68L921.61-22.68L921.61-16.13L922.13-16.13L922.13 0ZM952.96 0.63L952.96 0.63Q949.47 0.63 947.04-0.92Q944.60-2.48 943.31-5.19Q942.02-7.90 942.00-11.34L942.00-11.34Q942.02-14.85 943.34-17.55Q944.66-20.24 947.12-21.78Q949.58-23.31 953.02-23.31L953.02-23.31Q956.74-23.31 959.37-21.46Q962.01-19.61 962.85-16.40L962.85-16.40L958.48-15.14Q957.83-17.05 956.35-18.11Q954.87-19.17 952.96-19.17L952.96-19.17Q950.80-19.17 949.41-18.15Q948.02-17.14 947.35-15.37Q946.68-13.61 946.66-11.34L946.66-11.34Q946.68-7.83 948.27-5.67Q949.85-3.51 952.96-3.51L952.96-3.51Q955.08-3.51 956.39-4.48Q957.71-5.46 958.40-7.29L958.40-7.29L962.85-6.24Q961.74-2.92 959.18-1.14Q956.61 0.63 952.96 0.63ZM973.54 10.08L969.36 10.08L973.75-1.87L973.81 1.66L963.92-22.68L968.50-22.68L975.89-3.89L974.55-3.89L981.60-22.68L986.06-22.68L973.54 10.08Z" fill="#8A9199"></path>
</svg>