<svg xmlns="http://www.w3.org/2000/svg" viewBox="0 0 720 540" fill="none" role="img" aria-hidden="true">
  <!-- input documents -->
  <g>
    <rect x="36" y="64" width="140" height="104" rx="10" fill="#FFFFFF" stroke="#E8E6E1" stroke-width="1.5"/>
    <path d="M152 64 L176 88 L152 88 Z" fill="#EDEBE6" stroke="#E8E6E1" stroke-width="1.2"/>
    <circle cx="58" cy="90" r="4.5" fill="#2E7CF6"/>
    <rect x="54" y="106" width="78" height="6" rx="3" fill="#ECEAE5"/>
    <rect x="54" y="122" width="92" height="6" rx="3" fill="#ECEAE5"/>
    <rect x="54" y="138" width="58" height="6" rx="3" fill="#ECEAE5"/>
  </g>
  <g>
    <rect x="66" y="208" width="140" height="104" rx="10" fill="#FFFFFF" stroke="#E8E6E1" stroke-width="1.5"/>
    <path d="M182 208 L206 232 L182 232 Z" fill="#EDEBE6" stroke="#E8E6E1" stroke-width="1.2"/>
    <circle cx="88" cy="234" r="4.5" fill="#2FA05A"/>
    <rect x="84" y="250" width="86" height="6" rx="3" fill="#ECEAE5"/>
    <rect x="84" y="266" width="70" height="6" rx="3" fill="#ECEAE5"/>
    <rect x="84" y="282" width="94" height="6" rx="3" fill="#ECEAE5"/>
  </g>
  <g>
    <rect x="36" y="352" width="140" height="104" rx="10" fill="#FFFFFF" stroke="#E8E6E1" stroke-width="1.5"/>
    <path d="M152 352 L176 376 L152 376 Z" fill="#EDEBE6" stroke="#E8E6E1" stroke-width="1.2"/>
    <circle cx="58" cy="378" r="4.5" fill="#E8503A"/>
    <rect x="54" y="394" width="90" height="6" rx="3" fill="#ECEAE5"/>
    <rect x="54" y="410" width="64" height="6" rx="3" fill="#ECEAE5"/>
    <rect x="54" y="426" width="80" height="6" rx="3" fill="#ECEAE5"/>
  </g>

  <!-- input connectors -->
  <path d="M176 116 C 244 116, 256 208, 300 240" stroke="#DBD9D4" stroke-width="1.5"/>
  <path d="M206 260 C 246 260, 258 268, 300 270" stroke="#DBD9D4" stroke-width="1.5"/>
  <path d="M176 404 C 244 404, 256 332, 300 300" stroke="#DBD9D4" stroke-width="1.5"/>
  <circle cx="244" cy="130" r="4.5" fill="#2E7CF6"/>
  <circle cx="252" cy="263" r="4.5" fill="#2FA05A"/>
  <circle cx="244" cy="390" r="4.5" fill="#E8503A"/>

  <!-- center: lexsas mark -->
  <rect x="300" y="200" width="140" height="140" rx="22" fill="#FFFFFF" stroke="#E8E6E1" stroke-width="1.5"/>
  <g transform="translate(322 222)">
    <path d="M 48 14 A 34 34 0 0 1 82 48" stroke="#2E7CF6" stroke-width="9" stroke-linecap="round"/>
    <path d="M 82 48 A 34 34 0 0 1 48 82" stroke="#E8503A" stroke-width="9" stroke-linecap="round"/>
    <path d="M 48 82 A 34 34 0 0 1 14 48" stroke="#F5B301" stroke-width="9" stroke-linecap="round"/>
    <path d="M 14 48 A 34 34 0 0 1 48 14" stroke="#2FA05A" stroke-width="9" stroke-linecap="round"/>
    <line x1="36" y1="36" x2="60" y2="60" stroke="#22272C" stroke-width="9" stroke-linecap="round"/>
    <line x1="60" y1="36" x2="36" y2="60" stroke="#22272C" stroke-width="9" stroke-linecap="round"/>
  </g>
  <path d="M456 186 L459 197 L470 200 L459 203 L456 214 L453 203 L442 200 L453 197 Z" fill="#2E7CF6"/>

  <!-- output connectors -->
  <path d="M440 270 H462 Q472 270 472 260 V130 Q472 120 482 120 H520" stroke="#22272C" stroke-width="2" stroke-linecap="round"/>
  <path d="M440 270 H520" stroke="#22272C" stroke-width="2" stroke-linecap="round"/>
  <path d="M440 270 H462 Q472 270 472 280 V410 Q472 420 482 420 H520" stroke="#22272C" stroke-width="2" stroke-linecap="round"/>

  <!-- output cards -->
  <g>
    <rect x="520" y="78" width="164" height="84" rx="12" fill="#FFFFFF" stroke="#E8E6E1" stroke-width="1.5"/>
    <rect x="538" y="106" width="66" height="6" rx="3" fill="#ECEAE5"/>
    <rect x="538" y="122" width="84" height="6" rx="3" fill="#ECEAE5"/>
    <circle cx="650" cy="120" r="16" stroke="#2E7CF6" stroke-width="2.5"/>
    <path d="M643 120 L648 125 L658 114" stroke="#2E7CF6" stroke-width="2.5" stroke-linecap="round" stroke-linejoin="round"/>
  </g>
  <g>
    <rect x="520" y="228" width="164" height="84" rx="12" fill="#FFFFFF" stroke="#E8E6E1" stroke-width="1.5"/>
    <rect x="538" y="256" width="74" height="6" rx="3" fill="#ECEAE5"/>
    <rect x="538" y="272" width="58" height="6" rx="3" fill="#ECEAE5"/>
    <circle cx="650" cy="270" r="16" stroke="#2FA05A" stroke-width="2.5"/>
    <path d="M643 270 L648 275 L658 264" stroke="#2FA05A" stroke-width="2.5" stroke-linecap="round" stroke-linejoin="round"/>
  </g>
  <g>
    <rect x="520" y="378" width="164" height="84" rx="12" fill="#FFFFFF" stroke="#E8E6E1" stroke-width="1.5"/>
    <rect x="538" y="406" width="60" height="6" rx="3" fill="#ECEAE5"/>
    <rect x="538" y="422" width="80" height="6" rx="3" fill="#ECEAE5"/>
    <circle cx="650" cy="420" r="16" stroke="#F5B301" stroke-width="2.5"/>
    <path d="M643 420 L648 425 L658 414" stroke="#F5B301" stroke-width="2.5" stroke-linecap="round" stroke-linejoin="round"/>
  </g>

  <!-- sparse texture dots -->
  <circle cx="262" cy="56" r="2" fill="#E3E1DC"/>
  <circle cx="492" cy="62" r="2" fill="#E3E1DC"/>
  <circle cx="238" cy="486" r="2" fill="#E3E1DC"/>
  <circle cx="512" cy="492" r="2" fill="#E3E1DC"/>
  <circle cx="700" cy="270" r="2" fill="#E3E1DC"/>
  <circle cx="20" cy="270" r="2" fill="#E3E1DC"/>
</svg>
